# Blender v2.90.1 OBJ File: ''
# www.blender.org
mtllib teher.mtl
o Cube
v 0.861001 0.098331 -2.997971
v 0.861001 0.175347 -3.021333
v 0.861001 0.246325 -3.059272
v 0.861001 0.308537 -3.110328
v 0.861001 0.359594 -3.172541
v 0.861001 0.397532 -3.243519
v 0.861001 0.420895 -3.320534
v 0.861001 0.428783 -3.400628
v 0.861001 0.420894 -3.480721
v 0.861001 0.397532 -3.557737
v 0.861001 0.359593 -3.628715
v 0.861001 0.308537 -3.690928
v 0.861001 0.246324 -3.741984
v 0.861001 0.175346 -3.779922
v 0.861001 0.098330 -3.803285
v -0.755758 0.098331 -2.997971
v -0.755758 0.175347 -3.021333
v -0.755758 0.246325 -3.059272
v -0.755758 0.308537 -3.110328
v -0.755758 0.359594 -3.172541
v -0.755758 0.397532 -3.243519
v -0.755757 0.420895 -3.320534
v -0.755757 0.428783 -3.400628
v -0.755757 0.420894 -3.480721
v -0.755758 0.397532 -3.557737
v -0.755758 0.359593 -3.628715
v -0.755758 0.308537 -3.690928
v -0.755758 0.246324 -3.741984
v -0.755758 0.175346 -3.779922
v -0.755758 0.098330 -3.803285
v -0.755758 0.098331 0.216489
v -0.755758 0.175347 0.193127
v -0.755758 0.246325 0.155188
v -0.755758 0.308537 0.104132
v -0.755758 0.359594 0.041919
v -0.755758 0.397532 -0.029059
v -0.755757 0.420895 -0.106074
v -0.755757 0.428783 -0.186168
v -0.755757 0.420894 -0.266261
v -0.755758 0.397532 -0.343277
v -0.755758 0.359593 -0.414255
v -0.755758 0.308537 -0.476467
v -0.755758 0.246324 -0.527524
v -0.755758 0.175346 -0.565462
v -0.755758 0.098330 -0.588825
v 0.746040 0.098331 0.216489
v 0.746040 0.175347 0.193127
v 0.746040 0.246325 0.155188
v 0.746040 0.308537 0.104132
v 0.746040 0.359594 0.041919
v 0.746040 0.397532 -0.029059
v 0.746040 0.420895 -0.106074
v 0.746040 0.428783 -0.186168
v 0.746040 0.420894 -0.266261
v 0.746040 0.397532 -0.343277
v 0.746040 0.359593 -0.414255
v 0.746040 0.308537 -0.476467
v 0.746040 0.246324 -0.527524
v 0.746040 0.175346 -0.565462
v 0.746040 0.098330 -0.588825
v 1.000000 0.769280 -4.076110
v 1.000000 0.030044 -4.076110
v 1.000000 1.632684 0.142282
v 1.000000 0.030044 0.672357
v -1.000000 0.769280 -4.076110
v -1.000000 0.030044 -4.076110
v -1.000000 1.632684 0.142282
v -1.000000 0.030044 0.672357
v -1.000000 0.030044 -0.805325
v 1.000000 0.769280 -0.805325
v -1.000000 0.769280 -0.805325
v 1.000000 0.030044 -0.805325
v -1.000000 0.030044 -0.796263
v 1.000000 1.756572 -0.796263
v -1.000000 1.756572 -0.796263
v 1.000000 0.030044 -0.796263
v 0.758549 0.769280 -1.054232
v 0.744605 0.769280 -3.808508
v -0.764716 0.769280 -3.820736
v -0.715165 0.769280 -1.115003
v 0.758549 0.548611 -1.054232
v 0.744605 0.548611 -3.808508
v -0.764716 0.548611 -3.820736
v -0.715165 0.548611 -1.115003
v 1.000000 0.098330 -0.588825
v 0.746040 0.030044 -0.595550
v 1.000000 0.175346 -0.565462
v 1.000000 0.030044 -0.595550
v 1.000000 0.246324 -0.527524
v 1.000000 0.308537 -0.476467
v 1.000000 0.359593 -0.414255
v 1.000000 0.397532 -0.343277
v 1.000000 0.420894 -0.266261
v 1.000000 0.428783 -0.186168
v 1.000000 0.420895 -0.106074
v 1.000000 0.359594 0.041919
v 1.000000 0.397532 -0.029059
v 1.000000 0.308537 0.104132
v 1.000000 0.246325 0.155188
v 1.000000 0.175347 0.193127
v 0.746040 0.030044 0.223215
v 1.000000 0.098331 0.216489
v 1.000000 0.030044 0.223215
v -0.755757 0.030044 -0.595550
v -1.000000 0.098330 -0.588825
v -1.000000 0.175346 -0.565462
v -1.000000 0.030044 -0.595550
v -1.000000 0.246324 -0.527524
v -1.000000 0.308537 -0.476467
v -1.000000 0.359593 -0.414255
v -1.000000 0.397532 -0.343277
v -1.000000 0.420894 -0.266261
v -1.000000 0.428783 -0.186168
v -1.000000 0.420895 -0.106074
v -1.000000 0.397532 -0.029059
v -1.000000 0.359594 0.041919
v -1.000000 0.308537 0.104132
v -1.000000 0.246325 0.155188
v -1.000000 0.175347 0.193127
v -0.755758 0.030044 0.223215
v -1.000000 0.098331 0.216489
v -1.000000 0.030044 0.223215
v -1.000000 0.428783 -3.400628
v -1.000000 0.420894 -3.480721
v -1.000000 0.420895 -3.320534
v -1.000000 0.397532 -3.243519
v -1.000000 0.397532 -3.557737
v -1.000000 0.359594 -3.172541
v -1.000000 0.359593 -3.628715
v -1.000000 0.308537 -3.110328
v -1.000000 0.308537 -3.690928
v -1.000000 0.246325 -3.059272
v -1.000000 0.246324 -3.741984
v -1.000000 0.175346 -3.779922
v -1.000000 0.098330 -3.803285
v -1.000000 0.175347 -3.021333
v -0.755758 0.030044 -2.991245
v -1.000000 0.098331 -2.997971
v -0.755758 0.030044 -3.810010
v -1.000000 0.030044 -3.810010
v -1.000000 0.030044 -2.991245
v 1.000000 0.428783 -3.400628
v 1.000000 0.420894 -3.480721
v 1.000000 0.420895 -3.320534
v 1.000000 0.397532 -3.243519
v 1.000000 0.397532 -3.557737
v 1.000000 0.359594 -3.172541
v 1.000000 0.359593 -3.628715
v 1.000000 0.308537 -3.110328
v 1.000000 0.308537 -3.690928
v 1.000000 0.246325 -3.059272
v 0.861001 0.030044 -3.810010
v 1.000000 0.246324 -3.741984
v 1.000000 0.175346 -3.779922
v 1.000000 0.098330 -3.803285
v 1.000000 0.175347 -3.021333
v 1.000000 0.098331 -2.997971
v 0.861001 0.030044 -2.991245
v 1.000000 0.030044 -3.810010
v 1.000000 0.030044 -2.991245
v 1.000000 0.936880 0.672357
v -1.000000 0.963239 0.672357
vt 0.776109 0.465461
vt 0.786549 0.470753
vt 0.776109 0.465461
vt 0.786549 0.470753
vt 0.797200 0.470832
vt 0.797200 0.470832
vt 0.807653 0.465695
vt 0.817506 0.455538
vt 0.817506 0.455538
vt 0.826379 0.440752
vt 0.826379 0.440752
vt 0.833933 0.421905
vt 0.839876 0.399722
vt 0.839876 0.399722
vt 0.843981 0.375055
vt 0.843981 0.375055
vt 0.737948 0.348050
vt 0.739995 0.374284
vt 0.737948 0.348050
vt 0.845779 0.352715
vt 0.739995 0.374284
vt 0.744042 0.399012
vt 0.744042 0.399012
vt 0.749933 0.421282
vt 0.749933 0.421282
vt 0.757442 0.440241
vt 0.757442 0.440241
vt 0.766281 0.455158
vt 0.245634 0.433992
vt 0.262010 0.438040
vt 0.245634 0.433992
vt 0.262010 0.438040
vt 0.278386 0.433992
vt 0.278386 0.433992
vt 0.290442 0.425091
vt 0.308646 0.402534
vt 0.308646 0.402534
vt 0.323827 0.472063
vt 0.323827 0.472063
vt 0.334266 0.440137
vt 0.334266 0.440137
vt 0.342023 0.403713
vt 0.345570 0.410512
vt 0.345570 0.410512
vt 0.180911 0.410512
vt 0.186918 0.403714
vt 0.180911 0.410512
vt 0.346945 0.375470
vt 0.346945 0.375470
vt 0.186918 0.403714
vt 0.194675 0.440138
vt 0.194675 0.440138
vt 0.205114 0.472063
vt 0.205114 0.472063
vt 0.215374 0.402534
vt 0.215374 0.402534
vt 0.229887 0.422003
vt 0.373219 0.952665
vt 0.265030 0.924105
vt 0.373219 0.952665
vt 0.597141 0.384967
vt 0.436445 0.229888
vt 0.597141 0.229888
vt 0.920024 0.623871
vt 0.346945 0.375470
vt 0.179536 0.375470
vt 0.179536 0.375470
vt 0.245634 0.433992
vt 0.262010 0.438040
vt 0.924668 0.532754
vt 0.924668 0.532754
vt 0.920024 0.623871
vt 0.786549 0.470753
vt 0.797200 0.470832
vt 0.845779 0.352715
vt 0.737975 0.325259
vt 0.737975 0.325259
vt 0.396233 0.339887
vt 0.397785 0.615913
vt 0.397426 0.340191
vt 0.920024 0.416972
vt 0.815430 0.419708
vt 0.397785 0.409014
vt 0.265030 0.924105
vt 0.397785 0.615913
vt 0.396233 0.339887
vt 0.397426 0.340191
vt 0.435997 0.587681
vt 0.774613 0.449375
vt 0.773551 0.589490
vt 0.398356 0.596670
vt 0.694935 0.436462
vt 0.694832 0.604831
vt 0.397785 0.409014
vt 0.452782 0.327346
vt 0.460784 0.329384
vt 0.413409 0.407635
vt 0.424359 0.336751
vt 0.421411 0.409673
vt 0.773976 0.438646
vt 0.775315 0.365314
vt 0.772366 0.438237
vt 0.776924 0.365724
vt 0.416358 0.334713
vt 0.278386 0.433992
vt 0.294133 0.422003
vt 0.278386 0.433992
vt 0.262010 0.438040
vt 0.342023 0.403713
vt 0.345570 0.410512
vt 0.345570 0.410512
vt 0.205114 0.472063
vt 0.215374 0.402534
vt 0.205114 0.472063
vt 0.186918 0.403714
vt 0.194675 0.440138
vt 0.186918 0.403714
vt 0.215374 0.402534
vt 0.229887 0.422003
vt 0.308646 0.402534
vt 0.308646 0.402534
vt 0.334266 0.440137
vt 0.342023 0.403713
vt 0.323827 0.472063
vt 0.334266 0.440137
vt 0.323827 0.472063
vt 0.180911 0.410512
vt 0.179536 0.375470
vt 0.180911 0.410512
vt 0.245634 0.433992
vt 0.194675 0.440138
vt 0.346945 0.375470
vt 0.179536 0.375470
vt 0.737975 0.325259
vt 0.807653 0.465695
vt 0.807653 0.465695
vt 0.776109 0.465461
vt 0.776109 0.465461
vt 0.839876 0.399722
vt 0.843981 0.375055
vt 0.843981 0.375055
vt 0.749933 0.421282
vt 0.757442 0.440241
vt 0.749933 0.421282
vt 0.739995 0.374284
vt 0.744042 0.399012
vt 0.739995 0.374284
vt 0.757442 0.440241
vt 0.766281 0.455158
vt 0.817506 0.455538
vt 0.817506 0.455538
vt 0.833933 0.421905
vt 0.839876 0.399722
vt 0.826379 0.440752
vt 0.833933 0.421905
vt 0.826379 0.440752
vt 0.737948 0.348050
vt 0.737975 0.325259
vt 0.737948 0.348050
vt 0.766281 0.455158
vt 0.744042 0.399012
vt 0.845779 0.352715
vt 0.786549 0.470753
vt 0.344310 0.916342
vt 0.107821 0.553842
vt 0.351692 0.587811
vt 0.807653 0.465695
vt 0.833933 0.421905
vt 0.845779 0.352715
vt 0.766281 0.455158
vt 0.294133 0.422003
vt 0.342023 0.403713
vt 0.229887 0.422003
vt 0.436444 0.381018
vt 0.119301 0.380901
vt 0.119301 0.380901
vt 0.126442 0.630578
vt 0.920024 0.416972
vt 0.817040 0.420118
vt 0.126733 0.638313
vt 0.437059 0.447567
vt 0.393105 0.432226
vt 0.294133 0.422003
vt 0.231117 0.422003
vt 0.797200 0.470832
vt 0.241927 0.903188
vn -0.7298 -0.6705 -0.1333
vn -0.6857 -0.7279 0.0000
vn -0.6857 -0.7139 -0.1420
vn -0.7298 -0.6836 0.0000
vn -0.6857 -0.7139 0.1420
vn -0.7298 -0.6705 0.1334
vn -0.6857 -0.6725 0.2785
vn -0.7298 -0.5684 0.3798
vn -0.6857 -0.6052 0.4044
vn -0.7298 -0.4834 0.4834
vn -0.6857 -0.5147 0.5147
vn -0.6857 -0.4044 0.6052
vn -0.7298 -0.2616 0.6316
vn -0.6857 -0.2785 0.6725
vn -0.7298 -0.1333 0.6705
vn -0.6857 -0.1420 0.7139
vn -0.7298 -0.1333 -0.6705
vn -0.6857 -0.2785 -0.6725
vn -0.6857 -0.1420 -0.7139
vn -0.2768 -0.9149 0.2939
vn -0.7298 -0.2616 -0.6316
vn -0.6857 -0.4044 -0.6052
vn -0.7298 -0.3798 -0.5684
vn -0.6857 -0.5147 -0.5147
vn -0.7298 -0.4834 -0.4834
vn -0.6857 -0.6052 -0.4044
vn -0.7298 -0.5684 -0.3798
vn -0.6857 -0.6725 -0.2785
vn -0.7298 -0.3798 0.5684
vn -0.5827 -0.6022 0.5458
vn -0.5712 0.6197 -0.5382
vn 0.6311 0.6719 0.3875
vn 0.5712 0.6197 -0.5382
vn 0.6433 0.2430 0.7260
vn -0.5773 -0.5773 0.5773
vn 0.5773 -0.5773 0.5773
vn -0.5773 0.5773 -0.5773
vn 0.2768 -0.9149 0.2939
vn 0.2768 -0.9149 -0.2939
vn -0.2768 -0.9149 -0.2939
vn 0.7298 -0.6705 -0.1333
vn 0.7298 -0.6836 0.0000
vn 0.5773 -0.5773 -0.5773
vn -0.5773 -0.5773 -0.5773
vn 0.5773 0.5773 -0.5773
vn 0.7298 -0.6705 0.1334
vn -0.7071 -0.7071 0.0000
vn -0.9034 0.3045 -0.3017
vn -0.3043 0.9030 0.3034
vn 0.9034 0.3045 -0.3017
vn -0.6316 0.6743 0.3826
vn 0.7071 -0.7071 0.0000
vn 0.5823 0.5805 -0.5691
vn -0.5779 0.5780 0.5761
vn 0.5810 0.5759 0.5751
vn -0.2880 0.9099 -0.2986
vn 0.3154 0.8975 -0.3083
vn 0.2983 0.9076 0.2953
vn -0.5680 0.5749 -0.5889
vn 0.6857 -0.7139 0.1420
vn 0.7298 -0.6316 0.2616
vn 0.6857 -0.7279 0.0000
vn 0.7298 -0.2616 0.6316
vn 0.6857 -0.1420 0.7139
vn 0.7298 -0.1333 0.6705
vn 0.6857 -0.5147 -0.5147
vn 0.7298 -0.5684 -0.3798
vn 0.7298 -0.4834 -0.4834
vn 0.6857 -0.2785 -0.6725
vn 0.7298 -0.3798 -0.5684
vn 0.7298 -0.2616 -0.6316
vn 0.6857 -0.6052 -0.4044
vn 0.7298 -0.6316 -0.2616
vn 0.6857 -0.6052 0.4044
vn 0.7298 -0.5684 0.3798
vn 0.7298 -0.3798 0.5684
vn 0.6857 -0.2785 0.6725
vn 0.7298 -0.4834 0.4834
vn 0.6857 -0.4044 0.6052
vn 0.6857 -0.5147 0.5147
vn 0.6857 -0.1420 -0.7139
vn 0.5827 -0.6022 -0.5458
vn 0.7298 -0.1333 -0.6705
vn 0.6857 -0.7139 -0.1420
vn 0.6857 -0.4044 -0.6052
vn 0.5827 -0.6022 0.5458
vn -0.5827 -0.6022 -0.5458
vn 0.6857 -0.6725 0.2785
vn 0.7298 -0.1334 -0.6705
vn 0.6857 -0.6725 -0.2785
vn -0.6396 0.2527 0.7260
vn -0.7298 -0.6316 0.2616
vn -0.7298 -0.6316 -0.2616
usemtl Material
s 1
f 125/1/1 23/2/2 22/3/3
f 123/4/4 24/5/5 23/2/2
f 124/6/6 25/7/7 24/5/5
f 25/7/7 129/8/8 26/9/9
f 26/9/9 131/10/10 27/11/11
f 131/10/10 28/12/12 27/11/11
f 28/12/12 134/13/13 29/14/14
f 29/14/14 135/15/15 30/16/16
f 138/17/17 17/18/18 16/19/19
f 135/15/15 139/20/20 30/16/16
f 136/21/21 18/22/22 17/18/18
f 132/23/23 19/24/24 18/22/22
f 130/25/25 20/26/26 19/24/24
f 128/27/27 21/28/28 20/26/26
f 21/28/28 125/1/1 22/3/3
f 114/29/1 38/30/2 37/31/3
f 113/32/4 39/33/5 38/30/2
f 112/34/6 40/35/7 39/33/5
f 40/35/7 110/36/8 41/37/9
f 41/37/9 109/38/10 42/39/11
f 109/38/10 43/40/12 42/39/11
f 108/41/29 44/42/14 43/40/12
f 44/42/14 105/43/15 45/44/16
f 121/45/17 32/46/18 31/47/19
f 45/44/16 107/48/30 104/49/20
f 119/50/21 33/51/22 32/46/18
f 118/52/23 34/53/24 33/51/22
f 117/54/25 35/55/26 34/53/24
f 116/56/27 36/57/28 35/55/26
f 36/57/28 114/29/1 37/31/3
f 75/58/31 63/59/32 74/60/33
f 161/61/34 68/62/35 64/63/36
f 65/64/37 123/4/4 125/1/1
f 86/65/38 101/66/39 120/67/40
f 63/59/32 95/68/41 94/69/42
f 65/64/37 62/70/43 66/71/44
f 61/72/45 142/73/42 143/74/46
f 152/75/38 158/76/39 137/77/40
f 73/78/47 71/79/48 69/80/47
f 61/81/45 78/82/49 70/83/50
f 113/32/4 67/84/51 112/34/6
f 70/85/50 76/86/52 72/87/52
f 72/87/52 73/78/47 69/80/47
f 71/88/48 74/89/33 70/90/50
f 84/91/53 82/92/54 83/93/55
f 71/94/48 77/95/56 80/96/57
f 77/97/56 84/98/53 80/99/57
f 79/100/58 82/101/54 78/102/49
f 80/99/57 83/103/55 79/100/58
f 78/102/49 81/104/59 77/97/56
f 54/105/60 92/106/61 93/107/46
f 95/68/41 53/108/62 94/69/42
f 87/109/63 60/110/64 85/111/65
f 49/112/66 96/113/67 98/114/68
f 47/115/69 99/116/70 100/117/71
f 50/118/72 97/119/73 96/113/67
f 92/106/61 56/120/74 91/121/75
f 89/122/76 59/123/77 87/109/63
f 90/124/78 58/125/79 89/122/76
f 91/121/75 57/126/80 90/124/78
f 46/127/81 103/128/82 101/66/39
f 46/127/81 100/117/71 102/129/83
f 97/119/73 52/130/84 95/68/41
f 48/131/85 98/114/68 99/116/70
f 47/115/69 46/127/81 101/66/39
f 53/108/62 93/107/46 94/69/42
f 85/111/65 86/65/38 88/132/86
f 31/47/19 122/133/87 121/45/17
f 44/42/14 45/44/16 104/49/20
f 16/19/19 141/134/87 138/17/17
f 29/14/14 30/16/16 139/20/20
f 143/74/46 10/135/88 146/136/61
f 7/137/84 142/73/42 144/138/41
f 154/139/63 15/140/64 155/141/65
f 4/142/66 147/143/67 149/144/68
f 2/145/69 151/146/70 156/147/71
f 5/148/72 145/149/73 147/143/67
f 146/136/61 11/150/74 148/151/75
f 153/152/76 14/153/77 154/139/63
f 150/154/78 13/155/79 153/152/76
f 148/151/75 12/156/80 150/154/78
f 158/76/39 157/157/89 160/158/82
f 1/159/81 156/147/71 157/157/89
f 6/160/90 144/138/41 145/149/73
f 3/161/85 149/144/68 151/146/70
f 2/145/69 1/159/81 158/76/39
f 15/140/64 159/162/86 155/141/65
f 8/163/62 143/74/46 142/73/42
f 162/164/91 63/165/32 67/166/51
f 125/1/1 123/4/4 23/2/2
f 123/4/4 124/6/6 24/5/5
f 124/6/6 127/167/92 25/7/7
f 25/7/7 127/167/92 129/8/8
f 26/9/9 129/8/8 131/10/10
f 131/10/10 133/168/29 28/12/12
f 28/12/12 133/168/29 134/13/13
f 29/14/14 134/13/13 135/15/15
f 138/17/17 136/21/21 17/18/18
f 135/15/15 140/169/30 139/20/20
f 136/21/21 132/23/23 18/22/22
f 132/23/23 130/25/25 19/24/24
f 130/25/25 128/27/27 20/26/26
f 128/27/27 126/170/93 21/28/28
f 21/28/28 126/170/93 125/1/1
f 114/29/1 113/32/4 38/30/2
f 113/32/4 112/34/6 39/33/5
f 112/34/6 111/171/92 40/35/7
f 40/35/7 111/171/92 110/36/8
f 41/37/9 110/36/8 109/38/10
f 109/38/10 108/41/29 43/40/12
f 108/41/29 106/172/13 44/42/14
f 44/42/14 106/172/13 105/43/15
f 121/45/17 119/50/21 32/46/18
f 45/44/16 105/43/15 107/48/30
f 119/50/21 118/52/23 33/51/22
f 118/52/23 117/54/25 34/53/24
f 117/54/25 116/56/27 35/55/26
f 116/56/27 115/173/93 36/57/28
f 36/57/28 115/173/93 114/29/1
f 75/58/31 67/84/51 63/59/32
f 161/61/34 162/174/91 68/62/35
f 141/134/87 69/80/47 138/17/17
f 69/80/47 71/79/48 138/17/17
f 65/64/37 66/71/44 133/168/29
f 66/71/44 140/169/30 135/15/15
f 66/71/44 135/15/15 134/13/13
f 136/21/21 138/17/17 71/79/48
f 66/71/44 134/13/13 133/168/29
f 132/23/23 136/21/21 71/79/48
f 130/25/25 132/23/23 71/79/48
f 65/64/37 133/168/29 131/10/10
f 65/64/37 131/10/10 129/8/8
f 128/27/27 130/25/25 71/79/48
f 126/170/93 128/27/27 71/79/48
f 65/64/37 129/8/8 127/167/92
f 65/64/37 127/167/92 124/6/6
f 126/170/93 71/79/48 125/1/1
f 71/79/48 65/64/37 125/1/1
f 65/64/37 124/6/6 123/4/4
f 107/48/30 73/78/47 104/49/20
f 73/78/47 76/86/52 86/65/38
f 104/49/20 73/78/47 86/65/38
f 76/86/52 88/132/86 86/65/38
f 101/66/39 103/128/82 64/175/36
f 101/66/39 64/175/36 68/176/35
f 68/176/35 122/133/87 120/67/40
f 101/66/39 68/176/35 120/67/40
f 120/67/40 104/49/20 86/65/38
f 88/132/86 76/86/52 85/111/65
f 76/86/52 74/60/33 89/122/76
f 85/111/65 76/86/52 87/109/63
f 74/60/33 63/59/32 93/107/46
f 63/59/32 161/177/34 95/68/41
f 98/114/68 161/177/34 99/116/70
f 161/177/34 64/175/36 99/116/70
f 64/175/36 103/128/82 102/129/83
f 64/175/36 102/129/83 100/117/71
f 87/109/63 76/86/52 89/122/76
f 64/175/36 100/117/71 99/116/70
f 90/124/78 89/122/76 74/60/33
f 161/177/34 98/114/68 96/113/67
f 161/177/34 96/113/67 97/119/73
f 91/121/75 90/124/78 74/60/33
f 92/106/61 91/121/75 74/60/33
f 161/177/34 97/119/73 95/68/41
f 93/107/46 92/106/61 74/60/33
f 94/69/42 93/107/46 63/59/32
f 65/64/37 61/72/45 62/70/43
f 159/162/86 62/70/43 155/141/65
f 62/70/43 61/72/45 153/152/76
f 155/141/65 62/70/43 154/139/63
f 61/72/45 70/85/50 144/138/41
f 70/85/50 72/87/52 157/157/89
f 145/149/73 70/85/50 147/143/67
f 72/87/52 160/158/82 157/157/89
f 157/157/89 156/147/71 70/85/50
f 154/139/63 62/70/43 153/152/76
f 156/147/71 151/146/70 70/85/50
f 151/146/70 149/144/68 70/85/50
f 150/154/78 153/152/76 61/72/45
f 149/144/68 147/143/67 70/85/50
f 148/151/75 150/154/78 61/72/45
f 146/136/61 148/151/75 61/72/45
f 70/85/50 145/149/73 144/138/41
f 143/74/46 146/136/61 61/72/45
f 61/72/45 144/138/41 142/73/42
f 140/169/30 66/71/44 139/20/20
f 66/71/44 62/70/43 139/20/20
f 62/70/43 159/162/86 152/75/38
f 158/76/39 160/158/82 72/87/52
f 62/70/43 152/75/38 139/20/20
f 158/76/39 72/87/52 137/77/40
f 72/87/52 69/80/47 137/77/40
f 69/80/47 141/134/87 137/77/40
f 137/77/40 139/20/20 152/75/38
f 73/78/47 75/58/31 71/79/48
f 61/81/45 65/178/37 78/82/49
f 65/178/37 79/179/58 78/82/49
f 78/82/49 77/95/56 70/83/50
f 122/133/87 68/176/35 121/45/17
f 68/176/35 162/180/91 118/52/23
f 121/45/17 68/176/35 119/50/21
f 162/180/91 67/84/51 114/29/1
f 67/84/51 75/58/31 112/34/6
f 162/180/91 116/56/27 117/54/25
f 75/58/31 73/78/47 108/41/29
f 73/78/47 107/48/30 105/43/15
f 73/78/47 105/43/15 106/172/13
f 119/50/21 68/176/35 118/52/23
f 73/78/47 106/172/13 108/41/29
f 117/54/25 118/52/23 162/180/91
f 75/58/31 108/41/29 109/38/10
f 75/58/31 109/38/10 110/36/8
f 116/56/27 162/180/91 115/173/93
f 115/173/93 162/180/91 114/29/1
f 75/58/31 110/36/8 111/171/92
f 75/58/31 111/171/92 112/34/6
f 114/29/1 67/84/51 113/32/4
f 70/85/50 74/60/33 76/86/52
f 72/87/52 76/86/52 73/78/47
f 71/88/48 75/181/31 74/89/33
f 84/91/53 81/182/59 82/92/54
f 71/94/48 70/83/50 77/95/56
f 80/96/57 79/179/58 71/94/48
f 79/179/58 65/178/37 71/94/48
f 77/97/56 81/104/59 84/98/53
f 79/100/58 83/103/55 82/101/54
f 80/99/57 84/98/53 83/103/55
f 78/102/49 82/101/54 81/104/59
f 54/105/60 55/183/88 92/106/61
f 95/68/41 52/130/84 53/108/62
f 87/109/63 59/123/77 60/110/64
f 49/112/66 50/118/72 96/113/67
f 47/115/69 48/131/85 99/116/70
f 50/118/72 51/184/90 97/119/73
f 92/106/61 55/183/88 56/120/74
f 89/122/76 58/125/79 59/123/77
f 90/124/78 57/126/80 58/125/79
f 91/121/75 56/120/74 57/126/80
f 46/127/81 102/129/83 103/128/82
f 46/127/81 47/115/69 100/117/71
f 97/119/73 51/184/90 52/130/84
f 48/131/85 49/112/66 98/114/68
f 101/66/39 86/65/38 53/108/62
f 86/65/38 60/110/64 59/123/77
f 101/66/39 53/108/62 52/130/84
f 59/123/77 58/125/79 86/65/38
f 58/125/79 57/126/80 86/65/38
f 57/126/80 56/120/74 86/65/38
f 56/120/74 55/183/88 86/65/38
f 55/183/88 54/105/60 86/65/38
f 54/105/60 53/108/62 86/65/38
f 52/130/84 51/184/90 101/66/39
f 51/184/90 50/118/72 101/66/39
f 50/118/72 49/112/66 101/66/39
f 49/112/66 48/131/85 101/66/39
f 48/131/85 47/115/69 101/66/39
f 53/108/62 54/105/60 93/107/46
f 85/111/65 60/110/64 86/65/38
f 31/47/19 120/67/40 122/133/87
f 104/49/20 120/67/40 38/30/2
f 120/67/40 31/47/19 32/46/18
f 104/49/20 38/30/2 39/33/5
f 32/46/18 33/51/22 120/67/40
f 33/51/22 34/53/24 120/67/40
f 34/53/24 35/55/26 120/67/40
f 35/55/26 36/57/28 120/67/40
f 36/57/28 37/31/3 120/67/40
f 37/31/3 38/30/2 120/67/40
f 39/33/5 40/35/7 104/49/20
f 40/35/7 41/37/9 104/49/20
f 41/37/9 42/39/11 104/49/20
f 42/39/11 43/40/12 104/49/20
f 43/40/12 44/42/14 104/49/20
f 16/19/19 137/77/40 141/134/87
f 139/20/20 137/77/40 23/2/2
f 137/77/40 16/19/19 17/18/18
f 139/20/20 23/2/2 24/5/5
f 17/18/18 18/22/22 137/77/40
f 18/22/22 19/24/24 137/77/40
f 19/24/24 20/26/26 137/77/40
f 20/26/26 21/28/28 137/77/40
f 21/28/28 22/3/3 137/77/40
f 22/3/3 23/2/2 137/77/40
f 24/5/5 25/7/7 139/20/20
f 25/7/7 26/9/9 139/20/20
f 26/9/9 27/11/11 139/20/20
f 27/11/11 28/12/12 139/20/20
f 28/12/12 29/14/14 139/20/20
f 143/74/46 9/185/60 10/135/88
f 7/137/84 8/163/62 142/73/42
f 154/139/63 14/153/77 15/140/64
f 4/142/66 5/148/72 147/143/67
f 2/145/69 3/161/85 151/146/70
f 5/148/72 6/160/90 145/149/73
f 146/136/61 10/135/88 11/150/74
f 153/152/76 13/155/79 14/153/77
f 150/154/78 12/156/80 13/155/79
f 148/151/75 11/150/74 12/156/80
f 158/76/39 1/159/81 157/157/89
f 1/159/81 2/145/69 156/147/71
f 6/160/90 7/137/84 144/138/41
f 3/161/85 4/142/66 149/144/68
f 158/76/39 152/75/38 8/163/62
f 152/75/38 15/140/64 14/153/77
f 158/76/39 8/163/62 7/137/84
f 14/153/77 13/155/79 152/75/38
f 13/155/79 12/156/80 152/75/38
f 12/156/80 11/150/74 152/75/38
f 11/150/74 10/135/88 152/75/38
f 10/135/88 9/185/60 152/75/38
f 9/185/60 8/163/62 152/75/38
f 7/137/84 6/160/90 158/76/39
f 6/160/90 5/148/72 158/76/39
f 5/148/72 4/142/66 158/76/39
f 4/142/66 3/161/85 158/76/39
f 3/161/85 2/145/69 158/76/39
f 15/140/64 152/75/38 159/162/86
f 8/163/62 9/185/60 143/74/46
f 162/164/91 161/186/34 63/165/32
